<?xml version="1.0" encoding="utf-8" standalone="no"?>
<!DOCTYPE svg PUBLIC "-//W3C//DTD SVG 1.1//EN"
  "http://www.w3.org/Graphics/SVG/1.1/DTD/svg11.dtd">
<svg xmlns:xlink="http://www.w3.org/1999/xlink" width="864pt" height="504pt" viewBox="0 0 864 504" xmlns="http://www.w3.org/2000/svg" version="1.1">
 <metadata>
  <rdf:RDF xmlns:dc="http://purl.org/dc/elements/1.1/" xmlns:cc="http://creativecommons.org/ns#" xmlns:rdf="http://www.w3.org/1999/02/22-rdf-syntax-ns#">
   <cc:Work>
    <dc:type rdf:resource="http://purl.org/dc/dcmitype/StillImage"/>
    <dc:date>2025-05-18T19:40:11.178568</dc:date>
    <dc:format>image/svg+xml</dc:format>
    <dc:creator>
     <cc:Agent>
      <dc:title>Matplotlib v3.10.1, https://matplotlib.org/</dc:title>
     </cc:Agent>
    </dc:creator>
   </cc:Work>
  </rdf:RDF>
 </metadata>
 <defs>
  <style type="text/css">*{stroke-linejoin: round; stroke-linecap: butt}</style>
 </defs>
 <g id="figure_1">
  <g id="patch_1">
   <path d="M 0 504 
L 864 504 
L 864 0 
L 0 0 
z
" style="fill: #ffffff"/>
  </g>
  <g id="axes_1">
   <g id="patch_2">
    <path d="M 57.26 462.04 
L 839.861405 462.04 
L 839.861405 26.88 
L 57.26 26.88 
z
" style="fill: #ffffff"/>
   </g>
   <g id="matplotlib.axis_1">
    <g id="xtick_1">
     <g id="line2d_1">
      <defs>
       <path id="m9eb814b4d1" d="M 0 0 
L 0 3.5 
" style="stroke: #000000; stroke-width: 0.8"/>
      </defs>
      <g>
       <use xlink:href="#m9eb814b4d1" x="91.485337" y="462.04" style="stroke: #000000; stroke-width: 0.8"/>
      </g>
     </g>
     <g id="text_1">
      <!-- Jan 2022 -->
      <g transform="translate(69.463462 476.638438) scale(0.1 -0.1)">
       <defs>
        <path id="DejaVuSans-4a" d="M 628 4666 
L 1259 4666 
L 1259 325 
Q 1259 -519 939 -900 
Q 619 -1281 -91 -1281 
L -331 -1281 
L -331 -750 
L -134 -750 
Q 284 -750 456 -515 
Q 628 -281 628 325 
L 628 4666 
z
" transform="scale(0.015625)"/>
        <path id="DejaVuSans-61" d="M 2194 1759 
Q 1497 1759 1228 1600 
Q 959 1441 959 1056 
Q 959 750 1161 570 
Q 1363 391 1709 391 
Q 2188 391 2477 730 
Q 2766 1069 2766 1631 
L 2766 1759 
L 2194 1759 
z
M 3341 1997 
L 3341 0 
L 2766 0 
L 2766 531 
Q 2569 213 2275 61 
Q 1981 -91 1556 -91 
Q 1019 -91 701 211 
Q 384 513 384 1019 
Q 384 1609 779 1909 
Q 1175 2209 1959 2209 
L 2766 2209 
L 2766 2266 
Q 2766 2663 2505 2880 
Q 2244 3097 1772 3097 
Q 1472 3097 1187 3025 
Q 903 2953 641 2809 
L 641 3341 
Q 956 3463 1253 3523 
Q 1550 3584 1831 3584 
Q 2591 3584 2966 3190 
Q 3341 2797 3341 1997 
z
" transform="scale(0.015625)"/>
        <path id="DejaVuSans-6e" d="M 3513 2113 
L 3513 0 
L 2938 0 
L 2938 2094 
Q 2938 2591 2744 2837 
Q 2550 3084 2163 3084 
Q 1697 3084 1428 2787 
Q 1159 2491 1159 1978 
L 1159 0 
L 581 0 
L 581 3500 
L 1159 3500 
L 1159 2956 
Q 1366 3272 1645 3428 
Q 1925 3584 2291 3584 
Q 2894 3584 3203 3211 
Q 3513 2838 3513 2113 
z
" transform="scale(0.015625)"/>
        <path id="DejaVuSans-20" transform="scale(0.015625)"/>
        <path id="DejaVuSans-32" d="M 1228 531 
L 3431 531 
L 3431 0 
L 469 0 
L 469 531 
Q 828 903 1448 1529 
Q 2069 2156 2228 2338 
Q 2531 2678 2651 2914 
Q 2772 3150 2772 3378 
Q 2772 3750 2511 3984 
Q 2250 4219 1831 4219 
Q 1534 4219 1204 4116 
Q 875 4013 500 3803 
L 500 4441 
Q 881 4594 1212 4672 
Q 1544 4750 1819 4750 
Q 2544 4750 2975 4387 
Q 3406 4025 3406 3419 
Q 3406 3131 3298 2873 
Q 3191 2616 2906 2266 
Q 2828 2175 2409 1742 
Q 1991 1309 1228 531 
z
" transform="scale(0.015625)"/>
        <path id="DejaVuSans-30" d="M 2034 4250 
Q 1547 4250 1301 3770 
Q 1056 3291 1056 2328 
Q 1056 1369 1301 889 
Q 1547 409 2034 409 
Q 2525 409 2770 889 
Q 3016 1369 3016 2328 
Q 3016 3291 2770 3770 
Q 2525 4250 2034 4250 
z
M 2034 4750 
Q 2819 4750 3233 4129 
Q 3647 3509 3647 2328 
Q 3647 1150 3233 529 
Q 2819 -91 2034 -91 
Q 1250 -91 836 529 
Q 422 1150 422 2328 
Q 422 3509 836 4129 
Q 1250 4750 2034 4750 
z
" transform="scale(0.015625)"/>
       </defs>
       <use xlink:href="#DejaVuSans-4a"/>
       <use xlink:href="#DejaVuSans-61" transform="translate(29.492188 0)"/>
       <use xlink:href="#DejaVuSans-6e" transform="translate(90.771484 0)"/>
       <use xlink:href="#DejaVuSans-20" transform="translate(154.150391 0)"/>
       <use xlink:href="#DejaVuSans-32" transform="translate(185.9375 0)"/>
       <use xlink:href="#DejaVuSans-30" transform="translate(249.560547 0)"/>
       <use xlink:href="#DejaVuSans-32" transform="translate(313.183594 0)"/>
       <use xlink:href="#DejaVuSans-32" transform="translate(376.806641 0)"/>
      </g>
     </g>
    </g>
    <g id="xtick_2">
     <g id="line2d_2">
      <g>
       <use xlink:href="#m9eb814b4d1" x="172.33259" y="462.04" style="stroke: #000000; stroke-width: 0.8"/>
      </g>
     </g>
     <g id="text_2">
      <!-- May 2022 -->
      <g transform="translate(147.681027 476.638438) scale(0.1 -0.1)">
       <defs>
        <path id="DejaVuSans-4d" d="M 628 4666 
L 1569 4666 
L 2759 1491 
L 3956 4666 
L 4897 4666 
L 4897 0 
L 4281 0 
L 4281 4097 
L 3078 897 
L 2444 897 
L 1241 4097 
L 1241 0 
L 628 0 
L 628 4666 
z
" transform="scale(0.015625)"/>
        <path id="DejaVuSans-79" d="M 2059 -325 
Q 1816 -950 1584 -1140 
Q 1353 -1331 966 -1331 
L 506 -1331 
L 506 -850 
L 844 -850 
Q 1081 -850 1212 -737 
Q 1344 -625 1503 -206 
L 1606 56 
L 191 3500 
L 800 3500 
L 1894 763 
L 2988 3500 
L 3597 3500 
L 2059 -325 
z
" transform="scale(0.015625)"/>
       </defs>
       <use xlink:href="#DejaVuSans-4d"/>
       <use xlink:href="#DejaVuSans-61" transform="translate(86.279297 0)"/>
       <use xlink:href="#DejaVuSans-79" transform="translate(147.558594 0)"/>
       <use xlink:href="#DejaVuSans-20" transform="translate(206.738281 0)"/>
       <use xlink:href="#DejaVuSans-32" transform="translate(238.525391 0)"/>
       <use xlink:href="#DejaVuSans-30" transform="translate(302.148438 0)"/>
       <use xlink:href="#DejaVuSans-32" transform="translate(365.771484 0)"/>
       <use xlink:href="#DejaVuSans-32" transform="translate(429.394531 0)"/>
      </g>
     </g>
    </g>
    <g id="xtick_3">
     <g id="line2d_3">
      <g>
       <use xlink:href="#m9eb814b4d1" x="255.201023" y="462.04" style="stroke: #000000; stroke-width: 0.8"/>
      </g>
     </g>
     <g id="text_3">
      <!-- Sep 2022 -->
      <g transform="translate(231.461961 476.638438) scale(0.1 -0.1)">
       <defs>
        <path id="DejaVuSans-53" d="M 3425 4513 
L 3425 3897 
Q 3066 4069 2747 4153 
Q 2428 4238 2131 4238 
Q 1616 4238 1336 4038 
Q 1056 3838 1056 3469 
Q 1056 3159 1242 3001 
Q 1428 2844 1947 2747 
L 2328 2669 
Q 3034 2534 3370 2195 
Q 3706 1856 3706 1288 
Q 3706 609 3251 259 
Q 2797 -91 1919 -91 
Q 1588 -91 1214 -16 
Q 841 59 441 206 
L 441 856 
Q 825 641 1194 531 
Q 1563 422 1919 422 
Q 2459 422 2753 634 
Q 3047 847 3047 1241 
Q 3047 1584 2836 1778 
Q 2625 1972 2144 2069 
L 1759 2144 
Q 1053 2284 737 2584 
Q 422 2884 422 3419 
Q 422 4038 858 4394 
Q 1294 4750 2059 4750 
Q 2388 4750 2728 4690 
Q 3069 4631 3425 4513 
z
" transform="scale(0.015625)"/>
        <path id="DejaVuSans-65" d="M 3597 1894 
L 3597 1613 
L 953 1613 
Q 991 1019 1311 708 
Q 1631 397 2203 397 
Q 2534 397 2845 478 
Q 3156 559 3463 722 
L 3463 178 
Q 3153 47 2828 -22 
Q 2503 -91 2169 -91 
Q 1331 -91 842 396 
Q 353 884 353 1716 
Q 353 2575 817 3079 
Q 1281 3584 2069 3584 
Q 2775 3584 3186 3129 
Q 3597 2675 3597 1894 
z
M 3022 2063 
Q 3016 2534 2758 2815 
Q 2500 3097 2075 3097 
Q 1594 3097 1305 2825 
Q 1016 2553 972 2059 
L 3022 2063 
z
" transform="scale(0.015625)"/>
        <path id="DejaVuSans-70" d="M 1159 525 
L 1159 -1331 
L 581 -1331 
L 581 3500 
L 1159 3500 
L 1159 2969 
Q 1341 3281 1617 3432 
Q 1894 3584 2278 3584 
Q 2916 3584 3314 3078 
Q 3713 2572 3713 1747 
Q 3713 922 3314 415 
Q 2916 -91 2278 -91 
Q 1894 -91 1617 61 
Q 1341 213 1159 525 
z
M 3116 1747 
Q 3116 2381 2855 2742 
Q 2594 3103 2138 3103 
Q 1681 3103 1420 2742 
Q 1159 2381 1159 1747 
Q 1159 1113 1420 752 
Q 1681 391 2138 391 
Q 2594 391 2855 752 
Q 3116 1113 3116 1747 
z
" transform="scale(0.015625)"/>
       </defs>
       <use xlink:href="#DejaVuSans-53"/>
       <use xlink:href="#DejaVuSans-65" transform="translate(63.476562 0)"/>
       <use xlink:href="#DejaVuSans-70" transform="translate(125 0)"/>
       <use xlink:href="#DejaVuSans-20" transform="translate(188.476562 0)"/>
       <use xlink:href="#DejaVuSans-32" transform="translate(220.263672 0)"/>
       <use xlink:href="#DejaVuSans-30" transform="translate(283.886719 0)"/>
       <use xlink:href="#DejaVuSans-32" transform="translate(347.509766 0)"/>
       <use xlink:href="#DejaVuSans-32" transform="translate(411.132812 0)"/>
      </g>
     </g>
    </g>
    <g id="xtick_4">
     <g id="line2d_4">
      <g>
       <use xlink:href="#m9eb814b4d1" x="337.39573" y="462.04" style="stroke: #000000; stroke-width: 0.8"/>
      </g>
     </g>
     <g id="text_4">
      <!-- Jan 2023 -->
      <g transform="translate(315.373855 476.638438) scale(0.1 -0.1)">
       <defs>
        <path id="DejaVuSans-33" d="M 2597 2516 
Q 3050 2419 3304 2112 
Q 3559 1806 3559 1356 
Q 3559 666 3084 287 
Q 2609 -91 1734 -91 
Q 1441 -91 1130 -33 
Q 819 25 488 141 
L 488 750 
Q 750 597 1062 519 
Q 1375 441 1716 441 
Q 2309 441 2620 675 
Q 2931 909 2931 1356 
Q 2931 1769 2642 2001 
Q 2353 2234 1838 2234 
L 1294 2234 
L 1294 2753 
L 1863 2753 
Q 2328 2753 2575 2939 
Q 2822 3125 2822 3475 
Q 2822 3834 2567 4026 
Q 2313 4219 1838 4219 
Q 1578 4219 1281 4162 
Q 984 4106 628 3988 
L 628 4550 
Q 988 4650 1302 4700 
Q 1616 4750 1894 4750 
Q 2613 4750 3031 4423 
Q 3450 4097 3450 3541 
Q 3450 3153 3228 2886 
Q 3006 2619 2597 2516 
z
" transform="scale(0.015625)"/>
       </defs>
       <use xlink:href="#DejaVuSans-4a"/>
       <use xlink:href="#DejaVuSans-61" transform="translate(29.492188 0)"/>
       <use xlink:href="#DejaVuSans-6e" transform="translate(90.771484 0)"/>
       <use xlink:href="#DejaVuSans-20" transform="translate(154.150391 0)"/>
       <use xlink:href="#DejaVuSans-32" transform="translate(185.9375 0)"/>
       <use xlink:href="#DejaVuSans-30" transform="translate(249.560547 0)"/>
       <use xlink:href="#DejaVuSans-32" transform="translate(313.183594 0)"/>
       <use xlink:href="#DejaVuSans-33" transform="translate(376.806641 0)"/>
      </g>
     </g>
    </g>
    <g id="xtick_5">
     <g id="line2d_5">
      <g>
       <use xlink:href="#m9eb814b4d1" x="418.242983" y="462.04" style="stroke: #000000; stroke-width: 0.8"/>
      </g>
     </g>
     <g id="text_5">
      <!-- May 2023 -->
      <g transform="translate(393.59142 476.638438) scale(0.1 -0.1)">
       <use xlink:href="#DejaVuSans-4d"/>
       <use xlink:href="#DejaVuSans-61" transform="translate(86.279297 0)"/>
       <use xlink:href="#DejaVuSans-79" transform="translate(147.558594 0)"/>
       <use xlink:href="#DejaVuSans-20" transform="translate(206.738281 0)"/>
       <use xlink:href="#DejaVuSans-32" transform="translate(238.525391 0)"/>
       <use xlink:href="#DejaVuSans-30" transform="translate(302.148438 0)"/>
       <use xlink:href="#DejaVuSans-32" transform="translate(365.771484 0)"/>
       <use xlink:href="#DejaVuSans-33" transform="translate(429.394531 0)"/>
      </g>
     </g>
    </g>
    <g id="xtick_6">
     <g id="line2d_6">
      <g>
       <use xlink:href="#m9eb814b4d1" x="501.111417" y="462.04" style="stroke: #000000; stroke-width: 0.8"/>
      </g>
     </g>
     <g id="text_6">
      <!-- Sep 2023 -->
      <g transform="translate(477.372354 476.638438) scale(0.1 -0.1)">
       <use xlink:href="#DejaVuSans-53"/>
       <use xlink:href="#DejaVuSans-65" transform="translate(63.476562 0)"/>
       <use xlink:href="#DejaVuSans-70" transform="translate(125 0)"/>
       <use xlink:href="#DejaVuSans-20" transform="translate(188.476562 0)"/>
       <use xlink:href="#DejaVuSans-32" transform="translate(220.263672 0)"/>
       <use xlink:href="#DejaVuSans-30" transform="translate(283.886719 0)"/>
       <use xlink:href="#DejaVuSans-32" transform="translate(347.509766 0)"/>
       <use xlink:href="#DejaVuSans-33" transform="translate(411.132812 0)"/>
      </g>
     </g>
    </g>
    <g id="xtick_7">
     <g id="line2d_7">
      <g>
       <use xlink:href="#m9eb814b4d1" x="583.306123" y="462.04" style="stroke: #000000; stroke-width: 0.8"/>
      </g>
     </g>
     <g id="text_7">
      <!-- Jan 2024 -->
      <g transform="translate(561.284248 476.638438) scale(0.1 -0.1)">
       <defs>
        <path id="DejaVuSans-34" d="M 2419 4116 
L 825 1625 
L 2419 1625 
L 2419 4116 
z
M 2253 4666 
L 3047 4666 
L 3047 1625 
L 3713 1625 
L 3713 1100 
L 3047 1100 
L 3047 0 
L 2419 0 
L 2419 1100 
L 313 1100 
L 313 1709 
L 2253 4666 
z
" transform="scale(0.015625)"/>
       </defs>
       <use xlink:href="#DejaVuSans-4a"/>
       <use xlink:href="#DejaVuSans-61" transform="translate(29.492188 0)"/>
       <use xlink:href="#DejaVuSans-6e" transform="translate(90.771484 0)"/>
       <use xlink:href="#DejaVuSans-20" transform="translate(154.150391 0)"/>
       <use xlink:href="#DejaVuSans-32" transform="translate(185.9375 0)"/>
       <use xlink:href="#DejaVuSans-30" transform="translate(249.560547 0)"/>
       <use xlink:href="#DejaVuSans-32" transform="translate(313.183594 0)"/>
       <use xlink:href="#DejaVuSans-34" transform="translate(376.806641 0)"/>
      </g>
     </g>
    </g>
    <g id="xtick_8">
     <g id="line2d_8">
      <g>
       <use xlink:href="#m9eb814b4d1" x="664.827103" y="462.04" style="stroke: #000000; stroke-width: 0.8"/>
      </g>
     </g>
     <g id="text_8">
      <!-- May 2024 -->
      <g transform="translate(640.175541 476.638438) scale(0.1 -0.1)">
       <use xlink:href="#DejaVuSans-4d"/>
       <use xlink:href="#DejaVuSans-61" transform="translate(86.279297 0)"/>
       <use xlink:href="#DejaVuSans-79" transform="translate(147.558594 0)"/>
       <use xlink:href="#DejaVuSans-20" transform="translate(206.738281 0)"/>
       <use xlink:href="#DejaVuSans-32" transform="translate(238.525391 0)"/>
       <use xlink:href="#DejaVuSans-30" transform="translate(302.148438 0)"/>
       <use xlink:href="#DejaVuSans-32" transform="translate(365.771484 0)"/>
       <use xlink:href="#DejaVuSans-34" transform="translate(429.394531 0)"/>
      </g>
     </g>
    </g>
    <g id="xtick_9">
     <g id="line2d_9">
      <g>
       <use xlink:href="#m9eb814b4d1" x="747.695537" y="462.04" style="stroke: #000000; stroke-width: 0.8"/>
      </g>
     </g>
     <g id="text_9">
      <!-- Sep 2024 -->
      <g transform="translate(723.956475 476.638438) scale(0.1 -0.1)">
       <use xlink:href="#DejaVuSans-53"/>
       <use xlink:href="#DejaVuSans-65" transform="translate(63.476562 0)"/>
       <use xlink:href="#DejaVuSans-70" transform="translate(125 0)"/>
       <use xlink:href="#DejaVuSans-20" transform="translate(188.476562 0)"/>
       <use xlink:href="#DejaVuSans-32" transform="translate(220.263672 0)"/>
       <use xlink:href="#DejaVuSans-30" transform="translate(283.886719 0)"/>
       <use xlink:href="#DejaVuSans-32" transform="translate(347.509766 0)"/>
       <use xlink:href="#DejaVuSans-34" transform="translate(411.132812 0)"/>
      </g>
     </g>
    </g>
    <g id="xtick_10">
     <g id="line2d_10">
      <g>
       <use xlink:href="#m9eb814b4d1" x="829.890244" y="462.04" style="stroke: #000000; stroke-width: 0.8"/>
      </g>
     </g>
     <g id="text_10">
      <!-- Jan 2025 -->
      <g transform="translate(807.868369 476.638438) scale(0.1 -0.1)">
       <defs>
        <path id="DejaVuSans-35" d="M 691 4666 
L 3169 4666 
L 3169 4134 
L 1269 4134 
L 1269 2991 
Q 1406 3038 1543 3061 
Q 1681 3084 1819 3084 
Q 2600 3084 3056 2656 
Q 3513 2228 3513 1497 
Q 3513 744 3044 326 
Q 2575 -91 1722 -91 
Q 1428 -91 1123 -41 
Q 819 9 494 109 
L 494 744 
Q 775 591 1075 516 
Q 1375 441 1709 441 
Q 2250 441 2565 725 
Q 2881 1009 2881 1497 
Q 2881 1984 2565 2268 
Q 2250 2553 1709 2553 
Q 1456 2553 1204 2497 
Q 953 2441 691 2322 
L 691 4666 
z
" transform="scale(0.015625)"/>
       </defs>
       <use xlink:href="#DejaVuSans-4a"/>
       <use xlink:href="#DejaVuSans-61" transform="translate(29.492188 0)"/>
       <use xlink:href="#DejaVuSans-6e" transform="translate(90.771484 0)"/>
       <use xlink:href="#DejaVuSans-20" transform="translate(154.150391 0)"/>
       <use xlink:href="#DejaVuSans-32" transform="translate(185.9375 0)"/>
       <use xlink:href="#DejaVuSans-30" transform="translate(249.560547 0)"/>
       <use xlink:href="#DejaVuSans-32" transform="translate(313.183594 0)"/>
       <use xlink:href="#DejaVuSans-35" transform="translate(376.806641 0)"/>
      </g>
     </g>
    </g>
    <g id="text_11">
     <!-- Date -->
     <g transform="translate(436.609921 490.316563) scale(0.1 -0.1)">
      <defs>
       <path id="DejaVuSans-44" d="M 1259 4147 
L 1259 519 
L 2022 519 
Q 2988 519 3436 956 
Q 3884 1394 3884 2338 
Q 3884 3275 3436 3711 
Q 2988 4147 2022 4147 
L 1259 4147 
z
M 628 4666 
L 1925 4666 
Q 3281 4666 3915 4102 
Q 4550 3538 4550 2338 
Q 4550 1131 3912 565 
Q 3275 0 1925 0 
L 628 0 
L 628 4666 
z
" transform="scale(0.015625)"/>
       <path id="DejaVuSans-74" d="M 1172 4494 
L 1172 3500 
L 2356 3500 
L 2356 3053 
L 1172 3053 
L 1172 1153 
Q 1172 725 1289 603 
Q 1406 481 1766 481 
L 2356 481 
L 2356 0 
L 1766 0 
Q 1100 0 847 248 
Q 594 497 594 1153 
L 594 3053 
L 172 3053 
L 172 3500 
L 594 3500 
L 594 4494 
L 1172 4494 
z
" transform="scale(0.015625)"/>
      </defs>
      <use xlink:href="#DejaVuSans-44"/>
      <use xlink:href="#DejaVuSans-61" transform="translate(77.001953 0)"/>
      <use xlink:href="#DejaVuSans-74" transform="translate(138.28125 0)"/>
      <use xlink:href="#DejaVuSans-65" transform="translate(177.490234 0)"/>
     </g>
    </g>
   </g>
   <g id="matplotlib.axis_2">
    <g id="ytick_1">
     <g id="line2d_11">
      <defs>
       <path id="m2799ad6269" d="M 0 0 
L -3.5 0 
" style="stroke: #000000; stroke-width: 0.8"/>
      </defs>
      <g>
       <use xlink:href="#m2799ad6269" x="57.26" y="455.81169" style="stroke: #000000; stroke-width: 0.8"/>
      </g>
     </g>
     <g id="text_12">
      <!-- 1400 -->
      <g transform="translate(24.81 459.610909) scale(0.1 -0.1)">
       <defs>
        <path id="DejaVuSans-31" d="M 794 531 
L 1825 531 
L 1825 4091 
L 703 3866 
L 703 4441 
L 1819 4666 
L 2450 4666 
L 2450 531 
L 3481 531 
L 3481 0 
L 794 0 
L 794 531 
z
" transform="scale(0.015625)"/>
       </defs>
       <use xlink:href="#DejaVuSans-31"/>
       <use xlink:href="#DejaVuSans-34" transform="translate(63.623047 0)"/>
       <use xlink:href="#DejaVuSans-30" transform="translate(127.246094 0)"/>
       <use xlink:href="#DejaVuSans-30" transform="translate(190.869141 0)"/>
      </g>
     </g>
    </g>
    <g id="ytick_2">
     <g id="line2d_12">
      <g>
       <use xlink:href="#m2799ad6269" x="57.26" y="395.961476" style="stroke: #000000; stroke-width: 0.8"/>
      </g>
     </g>
     <g id="text_13">
      <!-- 1500 -->
      <g transform="translate(24.81 399.760694) scale(0.1 -0.1)">
       <use xlink:href="#DejaVuSans-31"/>
       <use xlink:href="#DejaVuSans-35" transform="translate(63.623047 0)"/>
       <use xlink:href="#DejaVuSans-30" transform="translate(127.246094 0)"/>
       <use xlink:href="#DejaVuSans-30" transform="translate(190.869141 0)"/>
      </g>
     </g>
    </g>
    <g id="ytick_3">
     <g id="line2d_13">
      <g>
       <use xlink:href="#m2799ad6269" x="57.26" y="336.111261" style="stroke: #000000; stroke-width: 0.8"/>
      </g>
     </g>
     <g id="text_14">
      <!-- 1600 -->
      <g transform="translate(24.81 339.91048) scale(0.1 -0.1)">
       <defs>
        <path id="DejaVuSans-36" d="M 2113 2584 
Q 1688 2584 1439 2293 
Q 1191 2003 1191 1497 
Q 1191 994 1439 701 
Q 1688 409 2113 409 
Q 2538 409 2786 701 
Q 3034 994 3034 1497 
Q 3034 2003 2786 2293 
Q 2538 2584 2113 2584 
z
M 3366 4563 
L 3366 3988 
Q 3128 4100 2886 4159 
Q 2644 4219 2406 4219 
Q 1781 4219 1451 3797 
Q 1122 3375 1075 2522 
Q 1259 2794 1537 2939 
Q 1816 3084 2150 3084 
Q 2853 3084 3261 2657 
Q 3669 2231 3669 1497 
Q 3669 778 3244 343 
Q 2819 -91 2113 -91 
Q 1303 -91 875 529 
Q 447 1150 447 2328 
Q 447 3434 972 4092 
Q 1497 4750 2381 4750 
Q 2619 4750 2861 4703 
Q 3103 4656 3366 4563 
z
" transform="scale(0.015625)"/>
       </defs>
       <use xlink:href="#DejaVuSans-31"/>
       <use xlink:href="#DejaVuSans-36" transform="translate(63.623047 0)"/>
       <use xlink:href="#DejaVuSans-30" transform="translate(127.246094 0)"/>
       <use xlink:href="#DejaVuSans-30" transform="translate(190.869141 0)"/>
      </g>
     </g>
    </g>
    <g id="ytick_4">
     <g id="line2d_14">
      <g>
       <use xlink:href="#m2799ad6269" x="57.26" y="276.261046" style="stroke: #000000; stroke-width: 0.8"/>
      </g>
     </g>
     <g id="text_15">
      <!-- 1700 -->
      <g transform="translate(24.81 280.060265) scale(0.1 -0.1)">
       <defs>
        <path id="DejaVuSans-37" d="M 525 4666 
L 3525 4666 
L 3525 4397 
L 1831 0 
L 1172 0 
L 2766 4134 
L 525 4134 
L 525 4666 
z
" transform="scale(0.015625)"/>
       </defs>
       <use xlink:href="#DejaVuSans-31"/>
       <use xlink:href="#DejaVuSans-37" transform="translate(63.623047 0)"/>
       <use xlink:href="#DejaVuSans-30" transform="translate(127.246094 0)"/>
       <use xlink:href="#DejaVuSans-30" transform="translate(190.869141 0)"/>
      </g>
     </g>
    </g>
    <g id="ytick_5">
     <g id="line2d_15">
      <g>
       <use xlink:href="#m2799ad6269" x="57.26" y="216.410832" style="stroke: #000000; stroke-width: 0.8"/>
      </g>
     </g>
     <g id="text_16">
      <!-- 1800 -->
      <g transform="translate(24.81 220.210051) scale(0.1 -0.1)">
       <defs>
        <path id="DejaVuSans-38" d="M 2034 2216 
Q 1584 2216 1326 1975 
Q 1069 1734 1069 1313 
Q 1069 891 1326 650 
Q 1584 409 2034 409 
Q 2484 409 2743 651 
Q 3003 894 3003 1313 
Q 3003 1734 2745 1975 
Q 2488 2216 2034 2216 
z
M 1403 2484 
Q 997 2584 770 2862 
Q 544 3141 544 3541 
Q 544 4100 942 4425 
Q 1341 4750 2034 4750 
Q 2731 4750 3128 4425 
Q 3525 4100 3525 3541 
Q 3525 3141 3298 2862 
Q 3072 2584 2669 2484 
Q 3125 2378 3379 2068 
Q 3634 1759 3634 1313 
Q 3634 634 3220 271 
Q 2806 -91 2034 -91 
Q 1263 -91 848 271 
Q 434 634 434 1313 
Q 434 1759 690 2068 
Q 947 2378 1403 2484 
z
M 1172 3481 
Q 1172 3119 1398 2916 
Q 1625 2713 2034 2713 
Q 2441 2713 2670 2916 
Q 2900 3119 2900 3481 
Q 2900 3844 2670 4047 
Q 2441 4250 2034 4250 
Q 1625 4250 1398 4047 
Q 1172 3844 1172 3481 
z
" transform="scale(0.015625)"/>
       </defs>
       <use xlink:href="#DejaVuSans-31"/>
       <use xlink:href="#DejaVuSans-38" transform="translate(63.623047 0)"/>
       <use xlink:href="#DejaVuSans-30" transform="translate(127.246094 0)"/>
       <use xlink:href="#DejaVuSans-30" transform="translate(190.869141 0)"/>
      </g>
     </g>
    </g>
    <g id="ytick_6">
     <g id="line2d_16">
      <g>
       <use xlink:href="#m2799ad6269" x="57.26" y="156.560617" style="stroke: #000000; stroke-width: 0.8"/>
      </g>
     </g>
     <g id="text_17">
      <!-- 1900 -->
      <g transform="translate(24.81 160.359836) scale(0.1 -0.1)">
       <defs>
        <path id="DejaVuSans-39" d="M 703 97 
L 703 672 
Q 941 559 1184 500 
Q 1428 441 1663 441 
Q 2288 441 2617 861 
Q 2947 1281 2994 2138 
Q 2813 1869 2534 1725 
Q 2256 1581 1919 1581 
Q 1219 1581 811 2004 
Q 403 2428 403 3163 
Q 403 3881 828 4315 
Q 1253 4750 1959 4750 
Q 2769 4750 3195 4129 
Q 3622 3509 3622 2328 
Q 3622 1225 3098 567 
Q 2575 -91 1691 -91 
Q 1453 -91 1209 -44 
Q 966 3 703 97 
z
M 1959 2075 
Q 2384 2075 2632 2365 
Q 2881 2656 2881 3163 
Q 2881 3666 2632 3958 
Q 2384 4250 1959 4250 
Q 1534 4250 1286 3958 
Q 1038 3666 1038 3163 
Q 1038 2656 1286 2365 
Q 1534 2075 1959 2075 
z
" transform="scale(0.015625)"/>
       </defs>
       <use xlink:href="#DejaVuSans-31"/>
       <use xlink:href="#DejaVuSans-39" transform="translate(63.623047 0)"/>
       <use xlink:href="#DejaVuSans-30" transform="translate(127.246094 0)"/>
       <use xlink:href="#DejaVuSans-30" transform="translate(190.869141 0)"/>
      </g>
     </g>
    </g>
    <g id="ytick_7">
     <g id="line2d_17">
      <g>
       <use xlink:href="#m2799ad6269" x="57.26" y="96.710403" style="stroke: #000000; stroke-width: 0.8"/>
      </g>
     </g>
     <g id="text_18">
      <!-- 2000 -->
      <g transform="translate(24.81 100.509621) scale(0.1 -0.1)">
       <use xlink:href="#DejaVuSans-32"/>
       <use xlink:href="#DejaVuSans-30" transform="translate(63.623047 0)"/>
       <use xlink:href="#DejaVuSans-30" transform="translate(127.246094 0)"/>
       <use xlink:href="#DejaVuSans-30" transform="translate(190.869141 0)"/>
      </g>
     </g>
    </g>
    <g id="ytick_8">
     <g id="line2d_18">
      <g>
       <use xlink:href="#m2799ad6269" x="57.26" y="36.860188" style="stroke: #000000; stroke-width: 0.8"/>
      </g>
     </g>
     <g id="text_19">
      <!-- 2100 -->
      <g transform="translate(24.81 40.659407) scale(0.1 -0.1)">
       <use xlink:href="#DejaVuSans-32"/>
       <use xlink:href="#DejaVuSans-31" transform="translate(63.623047 0)"/>
       <use xlink:href="#DejaVuSans-30" transform="translate(127.246094 0)"/>
       <use xlink:href="#DejaVuSans-30" transform="translate(190.869141 0)"/>
      </g>
     </g>
    </g>
    <g id="text_20">
     <!-- Elo Rating -->
     <g transform="translate(18.730313 269.774844) rotate(-90) scale(0.1 -0.1)">
      <defs>
       <path id="DejaVuSans-45" d="M 628 4666 
L 3578 4666 
L 3578 4134 
L 1259 4134 
L 1259 2753 
L 3481 2753 
L 3481 2222 
L 1259 2222 
L 1259 531 
L 3634 531 
L 3634 0 
L 628 0 
L 628 4666 
z
" transform="scale(0.015625)"/>
       <path id="DejaVuSans-6c" d="M 603 4863 
L 1178 4863 
L 1178 0 
L 603 0 
L 603 4863 
z
" transform="scale(0.015625)"/>
       <path id="DejaVuSans-6f" d="M 1959 3097 
Q 1497 3097 1228 2736 
Q 959 2375 959 1747 
Q 959 1119 1226 758 
Q 1494 397 1959 397 
Q 2419 397 2687 759 
Q 2956 1122 2956 1747 
Q 2956 2369 2687 2733 
Q 2419 3097 1959 3097 
z
M 1959 3584 
Q 2709 3584 3137 3096 
Q 3566 2609 3566 1747 
Q 3566 888 3137 398 
Q 2709 -91 1959 -91 
Q 1206 -91 779 398 
Q 353 888 353 1747 
Q 353 2609 779 3096 
Q 1206 3584 1959 3584 
z
" transform="scale(0.015625)"/>
       <path id="DejaVuSans-52" d="M 2841 2188 
Q 3044 2119 3236 1894 
Q 3428 1669 3622 1275 
L 4263 0 
L 3584 0 
L 2988 1197 
Q 2756 1666 2539 1819 
Q 2322 1972 1947 1972 
L 1259 1972 
L 1259 0 
L 628 0 
L 628 4666 
L 2053 4666 
Q 2853 4666 3247 4331 
Q 3641 3997 3641 3322 
Q 3641 2881 3436 2590 
Q 3231 2300 2841 2188 
z
M 1259 4147 
L 1259 2491 
L 2053 2491 
Q 2509 2491 2742 2702 
Q 2975 2913 2975 3322 
Q 2975 3731 2742 3939 
Q 2509 4147 2053 4147 
L 1259 4147 
z
" transform="scale(0.015625)"/>
       <path id="DejaVuSans-69" d="M 603 3500 
L 1178 3500 
L 1178 0 
L 603 0 
L 603 3500 
z
M 603 4863 
L 1178 4863 
L 1178 4134 
L 603 4134 
L 603 4863 
z
" transform="scale(0.015625)"/>
       <path id="DejaVuSans-67" d="M 2906 1791 
Q 2906 2416 2648 2759 
Q 2391 3103 1925 3103 
Q 1463 3103 1205 2759 
Q 947 2416 947 1791 
Q 947 1169 1205 825 
Q 1463 481 1925 481 
Q 2391 481 2648 825 
Q 2906 1169 2906 1791 
z
M 3481 434 
Q 3481 -459 3084 -895 
Q 2688 -1331 1869 -1331 
Q 1566 -1331 1297 -1286 
Q 1028 -1241 775 -1147 
L 775 -588 
Q 1028 -725 1275 -790 
Q 1522 -856 1778 -856 
Q 2344 -856 2625 -561 
Q 2906 -266 2906 331 
L 2906 616 
Q 2728 306 2450 153 
Q 2172 0 1784 0 
Q 1141 0 747 490 
Q 353 981 353 1791 
Q 353 2603 747 3093 
Q 1141 3584 1784 3584 
Q 2172 3584 2450 3431 
Q 2728 3278 2906 2969 
L 2906 3500 
L 3481 3500 
L 3481 434 
z
" transform="scale(0.015625)"/>
      </defs>
      <use xlink:href="#DejaVuSans-45"/>
      <use xlink:href="#DejaVuSans-6c" transform="translate(63.183594 0)"/>
      <use xlink:href="#DejaVuSans-6f" transform="translate(90.966797 0)"/>
      <use xlink:href="#DejaVuSans-20" transform="translate(152.148438 0)"/>
      <use xlink:href="#DejaVuSans-52" transform="translate(183.935547 0)"/>
      <use xlink:href="#DejaVuSans-61" transform="translate(251.167969 0)"/>
      <use xlink:href="#DejaVuSans-74" transform="translate(312.447266 0)"/>
      <use xlink:href="#DejaVuSans-69" transform="translate(351.65625 0)"/>
      <use xlink:href="#DejaVuSans-6e" transform="translate(379.439453 0)"/>
      <use xlink:href="#DejaVuSans-67" transform="translate(442.818359 0)"/>
     </g>
    </g>
   </g>
   <g id="line2d_19">
    <path d="M 102.264971 396.922979 
L 121.12933 370.442602 
L 133.256417 345.700221 
L 135.277599 339.122572 
L 144.709778 285.042599 
L 158.858047 273.713325 
L 163.574137 273.614475 
L 173.006317 247.398031 
L 187.154586 228.546854 
L 210.735034 233.410052 
L 224.883304 237.212695 
L 229.599393 235.843578 
L 239.031573 233.521247 
L 243.747663 255.014813 
L 253.179842 241.164921 
L 265.30693 212.473799 
L 266.654384 226.064141 
L 276.760291 223.579701 
L 290.90856 237.996969 
L 295.62465 232.45606 
L 366.365996 224.216925 
L 371.082085 207.494753 
L 380.514265 200.887957 
L 389.946444 191.636387 
L 408.810803 171.570624 
L 413.526893 147.587831 
L 422.959072 144.505996 
L 437.107342 160.042233 
L 451.255611 146.746207 
L 460.68779 139.145995 
L 484.268239 110.708255 
L 488.984329 117.155428 
L 498.416508 115.117184 
L 518.628321 135.262814 
L 521.996957 128.795169 
L 540.861316 142.647223 
L 550.293495 163.933086 
L 592.738303 158.555741 
L 611.602662 160.138895 
L 616.318752 174.33904 
L 625.750931 175.999027 
L 635.183111 145.229566 
L 658.763559 149.169784 
L 682.344008 144.499079 
L 696.492277 139.748714 
L 705.924457 127.192655 
L 724.788815 116.922611 
L 734.220995 108.347784 
L 743.653174 141.030777 
L 754.432808 139.985288 
L 755.780262 137.17427 
L 760.496352 128.095286 
L 764.538715 125.089511 
L 768.581077 117.134509 
L 786.097982 113.450783 
L 795.530161 139.0851 
L 800.919978 149.26486 
" clip-path="url(#p9baa13e9ba)" style="fill: none; stroke: #ff7f0e; stroke-width: 2.5; stroke-linecap: square"/>
   </g>
   <g id="line2d_20">
    <path d="M 125.845419 395.961476 
L 158.858047 386.674588 
L 163.574137 395.598571 
L 173.006317 370.412708 
L 177.722406 325.518053 
L 187.154586 308.782952 
L 210.735034 273.714483 
L 270.02302 257.799129 
L 272.044201 250.924754 
L 276.760291 210.409574 
L 295.62465 216.869962 
L 305.056829 177.687435 
L 338.069457 165.986889 
L 347.501637 156.979859 
L 375.798175 130.363556 
L 404.094714 142.283142 
L 408.810803 155.761591 
L 422.959072 166.448366 
L 437.107342 160.002913 
L 460.68779 148.958564 
L 488.984329 118.63056 
L 498.416508 111.507713 
L 510.543596 99.809392 
L 540.861316 92.076582 
L 550.293495 78.562103 
L 557.030766 80.330073 
L 558.378221 79.224483 
L 583.306123 91.170067 
L 592.738303 100.856183 
L 625.750931 103.660563 
L 649.33138 126.467008 
L 668.195739 124.452615 
L 677.627918 154.656903 
L 682.344008 154.739035 
L 705.924457 151.064308 
L 724.788815 133.089111 
L 743.653174 116.495305 
L 756.453989 129.878454 
L 768.581077 123.186061 
" clip-path="url(#p9baa13e9ba)" style="fill: none; stroke: #808080; stroke-opacity: 0.4; stroke-linecap: square"/>
   </g>
   <g id="line2d_21">
    <path d="M 92.832791 404.551657 
L 116.41324 377.69187 
L 133.256417 354.58936 
L 135.277599 350.280418 
L 144.709778 326.474382 
L 158.858047 325.932523 
L 163.574137 331.661119 
L 168.290227 339.449109 
L 173.006317 331.449397 
L 177.722406 344.736932 
L 182.438496 328.012452 
L 187.154586 297.691229 
L 201.302855 276.869584 
L 210.735034 290.416832 
L 220.167214 300.057207 
L 224.883304 307.246751 
L 239.031573 288.043894 
L 243.747663 276.490584 
L 253.179842 265.332768 
L 265.30693 261.35484 
L 270.02302 257.775822 
L 272.044201 254.326408 
L 276.760291 264.383836 
L 290.90856 279.068858 
L 295.62465 293.2311 
L 305.056829 286.936237 
L 338.069457 289.083623 
L 342.785547 285.700856 
L 347.501637 298.752751 
L 375.798175 300.340176 
L 380.514265 313.57789 
L 389.946444 314.758518 
L 399.378624 324.880598 
L 404.094714 300.414643 
L 408.810803 306.141776 
L 413.526893 311.907187 
L 422.959072 306.402273 
L 432.391252 298.008996 
L 437.107342 312.878956 
L 460.68779 268.943385 
L 470.11997 279.55263 
L 474.83606 281.534012 
L 484.268239 271.168695 
L 488.984329 275.151199 
L 498.416508 286.248685 
L 518.628321 298.986799 
L 521.996957 294.971329 
L 531.429136 288.051168 
L 536.145226 307.602208 
L 540.861316 299.616369 
L 583.306123 291.842366 
L 592.738303 296.855503 
L 604.865391 289.388618 
L 616.318752 273.063738 
L 621.034841 254.061027 
L 625.750931 245.145612 
L 635.183111 259.09492 
L 644.61529 262.073046 
L 649.33138 257.413199 
L 654.047469 213.980459 
L 658.763559 204.974346 
L 668.195739 211.542615 
L 677.627918 217.99207 
L 682.344008 196.49889 
L 705.924457 205.482912 
L 715.356636 203.462676 
L 724.788815 218.326077 
L 729.504905 219.818264 
L 734.220995 226.467424 
L 743.653174 231.492298 
L 755.780262 247.07241 
L 760.496352 244.273233 
L 763.864988 256.38929 
L 768.581077 267.083304 
L 776.665803 280.814472 
L 781.381892 285.328926 
L 786.097982 295.241102 
L 790.814072 304.573608 
L 795.530161 318.943797 
" clip-path="url(#p9baa13e9ba)" style="fill: none; stroke: #808080; stroke-opacity: 0.4; stroke-linecap: square"/>
   </g>
   <g id="line2d_22">
    <path d="M 92.832791 386.223186 
L 102.264971 388.000859 
L 111.69715 374.770661 
L 125.845419 370.940837 
L 133.256417 362.286731 
L 135.277599 347.405371 
L 144.709778 341.126583 
L 158.858047 344.922519 
L 168.290227 326.436048 
L 173.006317 332.117643 
L 177.722406 307.277113 
L 187.154586 292.294221 
L 338.069457 288.840682 
L 347.501637 310.857604 
L 359.628725 300.09947 
L 366.365996 311.880117 
L 371.082085 316.041076 
L 375.798175 315.17291 
L 380.514265 306.61212 
L 389.946444 307.126559 
L 404.094714 312.272545 
L 408.810803 310.285529 
L 413.526893 323.001003 
L 422.959072 309.261181 
L 432.391252 306.020078 
L 437.107342 298.277498 
L 451.255611 268.36261 
L 460.68779 280.272551 
L 470.11997 274.974345 
L 474.83606 272.871266 
L 484.268239 263.41349 
L 488.984329 250.782333 
L 498.416508 220.664994 
L 513.912232 210.218236 
L 518.628321 206.177734 
L 521.996957 196.168227 
L 531.429136 210.670663 
L 536.145226 218.650603 
L 540.861316 234.760716 
L 550.293495 228.31837 
L 583.306123 200.686426 
L 592.738303 198.095001 
L 616.318752 183.797025 
L 621.034841 197.807857 
L 625.750931 210.828311 
L 635.183111 195.429681 
L 649.33138 194.773013 
L 654.047469 203.835625 
L 658.763559 216.372047 
L 668.195739 216.338361 
L 682.344008 165.143729 
L 696.492277 182.83769 
L 705.924457 183.267485 
L 715.356636 178.8203 
L 724.788815 191.299145 
L 729.504905 196.914275 
L 734.220995 190.660012 
L 743.653174 192.980508 
L 760.496352 183.88573 
L 768.581077 187.234568 
L 781.381892 196.594752 
L 786.097982 192.627572 
L 795.530161 156.920043 
" clip-path="url(#p9baa13e9ba)" style="fill: none; stroke: #808080; stroke-opacity: 0.4; stroke-linecap: square"/>
   </g>
   <g id="line2d_23">
    <path d="M 144.709778 402.466238 
L 173.006317 385.207142 
L 201.302855 399.212708 
L 206.018945 376.165331 
L 210.735034 369.75434 
L 234.315483 369.759292 
L 239.031573 356.738727 
L 248.463752 351.900694 
L 253.179842 334.804971 
L 286.19247 344.331644 
L 290.90856 336.148147 
L 295.62465 332.829846 
L 300.340739 340.847215 
L 338.069457 352.025389 
L 342.785547 334.000587 
L 347.501637 329.522926 
L 380.514265 323.541814 
L 404.094714 318.141292 
L 432.391252 312.80103 
L 437.107342 315.60285 
L 493.700419 327.157806 
L 498.416508 318.185416 
L 509.196142 313.04754 
L 531.429136 306.783475 
L 545.577406 314.760409 
L 557.030766 296.472037 
L 588.022213 311.998828 
L 592.738303 301.114593 
L 616.318752 295.766405 
L 621.034841 291.128591 
L 625.750931 291.449743 
L 635.183111 314.165659 
L 649.33138 309.073835 
L 654.047469 304.931881 
L 658.763559 312.687757 
L 668.195739 313.196964 
L 677.627918 309.309992 
L 682.344008 317.931835 
L 691.776187 304.050796 
L 696.492277 294.28963 
L 705.924457 281.209011 
L 724.788815 284.696761 
L 729.504905 291.403787 
L 734.220995 297.38556 
L 743.653174 269.001418 
L 755.780262 251.895939 
L 757.127716 264.410989 
L 763.864988 280.183529 
L 781.381892 241.140204 
L 786.097982 226.473992 
" clip-path="url(#p9baa13e9ba)" style="fill: none; stroke: #808080; stroke-opacity: 0.4; stroke-linecap: square"/>
   </g>
   <g id="line2d_24">
    <path d="M 92.832791 395.961476 
L 102.264971 370.187397 
L 125.845419 358.496562 
L 133.256417 336.952821 
L 135.277599 342.354525 
L 144.709778 321.064881 
L 158.858047 315.289728 
L 173.006317 297.847555 
L 177.722406 300.153262 
L 187.154586 290.73819 
L 206.018945 289.987299 
L 210.735034 305.52081 
L 229.599393 278.287167 
L 239.031573 260.290284 
L 243.747663 256.708986 
L 253.179842 267.374759 
L 265.30693 260.430145 
L 266.654384 255.37565 
L 272.044201 279.222383 
L 290.90856 274.932451 
L 295.62465 273.418714 
L 338.069457 286.887938 
L 347.501637 284.782814 
L 361.649906 278.658849 
L 366.365996 260.676865 
L 371.082085 249.576872 
L 380.514265 259.565913 
L 389.946444 225.809415 
L 404.094714 210.335334 
L 408.810803 211.246505 
L 422.959072 218.97601 
L 437.107342 229.149633 
L 446.539521 242.36575 
L 451.255611 245.059146 
L 460.68779 255.994007 
L 484.268239 225.019548 
L 488.984329 217.091109 
L 498.416508 228.324899 
L 518.628321 227.968171 
L 521.996957 191.051689 
L 536.145226 199.413248 
L 540.861316 169.929993 
L 550.293495 157.85862 
L 557.030766 153.690551 
L 558.378221 150.654634 
L 559.051948 138.70905 
L 592.738303 108.633259 
L 611.602662 104.813558 
L 625.750931 93.07838 
L 635.183111 83.012635 
L 649.33138 78.929358 
L 658.763559 85.472453 
L 682.344008 107.748384 
L 696.492277 100.053653 
L 705.924457 99.282559 
L 729.504905 111.737703 
L 734.220995 97.574002 
L 743.653174 87.20646 
L 764.538715 75.146569 
L 768.581077 82.037551 
L 795.530161 62.49067 
L 802.267433 49.983641 
L 803.614887 49.236514 
L 804.288614 46.66 
" clip-path="url(#p9baa13e9ba)" style="fill: none; stroke: #1f77b4; stroke-width: 2.5; stroke-linecap: square"/>
   </g>
   <g id="line2d_25"/>
   <g id="line2d_26">
    <path d="M 92.832791 395.961476 
L 102.264971 388.036463 
L 116.41324 362.935364 
L 125.845419 374.21 
L 133.256417 376.117853 
L 135.277599 329.046481 
L 144.709778 313.03748 
L 154.141958 321.977077 
L 158.858047 314.852607 
L 187.154586 321.808554 
L 196.586765 315.90332 
L 201.302855 326.626073 
L 206.018945 331.520697 
L 210.735034 305.22432 
L 234.315483 290.225113 
L 239.031573 296.886937 
L 243.747663 296.413511 
L 253.179842 284.970154 
L 263.959476 298.635312 
L 264.633203 306.740865 
L 265.980657 300.715774 
L 270.02302 310.532627 
L 276.760291 294.600599 
L 290.90856 261.114984 
L 295.62465 273.136108 
L 305.056829 272.353651 
L 311.7941 275.720509 
L 338.069457 260.010022 
L 347.501637 267.479891 
L 361.649906 257.378097 
L 366.365996 260.168017 
L 375.798175 250.645924 
L 380.514265 240.31627 
L 389.946444 242.359751 
L 404.094714 233.464672 
L 408.810803 235.950686 
L 413.526893 225.002076 
L 422.959072 239.958683 
L 432.391252 245.55873 
L 437.107342 250.094295 
L 446.539521 257.47435 
L 451.255611 271.232901 
L 455.971701 279.277881 
L 460.68779 284.458163 
L 474.83606 287.375796 
L 479.552149 276.142391 
L 484.268239 273.842592 
L 488.984329 278.352282 
L 498.416508 260.698459 
L 521.996957 251.29705 
L 531.429136 277.513371 
L 536.145226 268.868648 
L 540.861316 283.168085 
L 583.306123 296.779252 
L 592.738303 285.892984 
L 604.191664 269.691576 
L 611.602662 249.416921 
L 621.034841 244.019625 
L 625.750931 257.592713 
L 635.183111 253.599238 
L 649.33138 268.240362 
L 654.047469 281.259421 
L 658.763559 267.730459 
L 668.195739 254.236359 
L 677.627918 238.806973 
L 682.344008 253.834059 
L 696.492277 262.164446 
L 701.208367 253.383651 
L 705.924457 247.913081 
L 724.788815 225.77228 
L 729.504905 224.23304 
L 734.220995 230.479804 
L 743.653174 232.09922 
L 760.496352 197.935792 
L 763.864988 204.253049 
L 768.581077 215.764485 
L 786.097982 207.963972 
L 795.530161 192.561219 
L 802.267433 196.300794 
" clip-path="url(#p9baa13e9ba)" style="fill: none; stroke: #808080; stroke-opacity: 0.4; stroke-linecap: square"/>
   </g>
   <g id="line2d_27">
    <path d="M 92.832791 395.961476 
L 102.264971 405.326358 
L 111.69715 414.237604 
L 116.41324 423.858483 
L 121.12933 431.931642 
L 125.845419 427.83784 
L 135.277599 442.26 
L 158.858047 422.431041 
L 163.574137 417.793299 
L 168.290227 413.841948 
L 182.438496 348.739143 
L 187.154586 357.8573 
L 201.302855 331.128369 
L 206.018945 341.926175 
L 210.735034 352.593271 
L 220.167214 364.897966 
L 224.883304 375.993317 
L 229.599393 386.027009 
L 234.315483 396.068537 
L 239.031573 399.179681 
L 243.747663 396.620855 
L 253.179842 389.742986 
L 267.328111 388.034769 
L 272.044201 383.252965 
L 286.19247 319.510076 
L 290.90856 290.613215 
L 295.62465 282.458247 
L 338.069457 234.603882 
L 347.501637 247.94011 
L 359.628725 248.181683 
L 361.649906 255.169986 
L 366.365996 242.167331 
L 375.798175 248.493876 
L 380.514265 250.700208 
L 389.946444 250.514599 
L 404.094714 235.990782 
L 408.810803 228.94967 
L 413.526893 220.444202 
L 422.959072 225.149506 
L 437.107342 212.02657 
L 451.255611 218.492274 
L 460.68779 209.516697 
L 484.268239 202.337393 
L 488.984329 218.007001 
L 498.416508 231.848855 
L 510.543596 246.287842 
L 518.628321 256.525014 
L 521.996957 266.203032 
L 531.429136 280.247493 
L 536.145226 293.5478 
L 540.861316 277.247582 
L 550.293495 279.893235 
L 583.306123 257.583152 
L 592.738303 258.672292 
L 602.170482 268.324461 
L 611.602662 274.471571 
L 621.034841 270.976569 
L 625.750931 263.194588 
L 635.183111 258.910668 
L 649.33138 269.111095 
L 654.047469 256.114801 
L 658.763559 263.189616 
L 668.195739 265.295048 
L 682.344008 275.137969 
L 696.492277 268.758541 
L 705.924457 275.495212 
L 715.356636 262.115525 
L 729.504905 267.163134 
L 734.220995 268.29502 
L 743.653174 249.465005 
L 759.148898 261.270668 
L 763.864988 275.511478 
L 768.581077 259.559288 
L 781.381892 266.145011 
L 786.097982 246.569441 
" clip-path="url(#p9baa13e9ba)" style="fill: none; stroke: #808080; stroke-opacity: 0.4; stroke-linecap: square"/>
   </g>
   <g id="line2d_28">
    <path d="M 92.832791 395.961476 
L 102.264971 405.326358 
L 111.69715 420.748636 
L 116.41324 419.378489 
L 125.845419 398.363616 
L 133.256417 407.218809 
L 135.277599 398.110044 
L 144.709778 395.487476 
L 154.141958 406.39312 
L 158.858047 390.183679 
L 163.574137 377.719498 
L 173.006317 358.667214 
L 187.154586 365.93274 
L 196.586765 371.109282 
L 201.302855 382.32773 
L 210.735034 392.20769 
L 220.167214 397.383159 
L 224.883304 406.511871 
L 229.599393 351.270626 
L 243.747663 363.139727 
L 248.463752 373.59178 
L 253.179842 382.339261 
L 263.959476 373.540884 
L 267.328111 365.476374 
L 272.044201 377.103284 
L 281.47638 367.387084 
L 286.19247 335.093746 
L 290.90856 323.781447 
L 295.62465 321.265305 
L 300.340739 315.159213 
L 311.7941 332.257863 
L 313.141554 338.852903 
L 338.069457 326.123475 
L 347.501637 327.767753 
L 366.365996 352.841731 
L 371.082085 347.318692 
L 375.798175 358.678681 
L 380.514265 370.39352 
L 389.946444 379.202569 
L 399.378624 394.491732 
L 404.094714 380.162653 
L 408.810803 335.494915 
L 413.526893 327.44609 
L 422.959072 327.681139 
L 437.107342 327.571552 
L 446.539521 295.385601 
L 451.255611 303.527752 
L 460.68779 294.092838 
L 470.11997 299.505181 
L 474.83606 292.46935 
L 484.268239 299.913234 
L 488.984329 292.606046 
L 498.416508 292.560755 
L 509.196142 305.667589 
L 513.912232 307.491213 
L 518.628321 307.014596 
L 521.996957 309.972249 
L 536.145226 322.308263 
L 540.861316 327.835143 
L 545.577406 332.228125 
L 558.378221 340.282978 
L 583.306123 351.255367 
L 588.022213 353.848795 
L 592.738303 352.873133 
L 606.886572 358.15891 
L 611.602662 359.549018 
L 616.318752 366.12525 
L 621.034841 374.663684 
L 625.750931 388.127826 
L 635.183111 366.451226 
L 644.61529 358.106508 
L 649.33138 357.86371 
L 654.047469 348.538577 
L 658.763559 359.085017 
L 668.195739 369.390436 
L 682.344008 375.080887 
L 691.776187 359.945987 
L 696.492277 336.109576 
L 705.924457 308.892918 
L 720.072726 278.007044 
L 724.788815 260.976109 
L 734.220995 233.814382 
L 743.653174 246.919988 
L 759.148898 251.237624 
L 764.538715 252.630944 
L 768.581077 262.085957 
L 781.381892 262.459481 
L 786.097982 258.729 
L 802.267433 269.239844 
" clip-path="url(#p9baa13e9ba)" style="fill: none; stroke: #808080; stroke-opacity: 0.4; stroke-linecap: square"/>
   </g>
   <g id="patch_3">
    <path d="M 57.26 462.04 
L 57.26 26.88 
" style="fill: none; stroke: #000000; stroke-width: 0.8; stroke-linejoin: miter; stroke-linecap: square"/>
   </g>
   <g id="patch_4">
    <path d="M 839.861405 462.04 
L 839.861405 26.88 
" style="fill: none; stroke: #000000; stroke-width: 0.8; stroke-linejoin: miter; stroke-linecap: square"/>
   </g>
   <g id="patch_5">
    <path d="M 57.26 462.04 
L 839.861405 462.04 
" style="fill: none; stroke: #000000; stroke-width: 0.8; stroke-linejoin: miter; stroke-linecap: square"/>
   </g>
   <g id="patch_6">
    <path d="M 57.26 26.88 
L 839.861405 26.88 
" style="fill: none; stroke: #000000; stroke-width: 0.8; stroke-linejoin: miter; stroke-linecap: square"/>
   </g>
   <g id="text_21">
    <!-- Top Players' Elo Over Time (Highlighting Alcaraz &amp; Sinner) -->
    <g transform="translate(274.485702 20.88) scale(0.12 -0.12)">
     <defs>
      <path id="DejaVuSans-54" d="M -19 4666 
L 3928 4666 
L 3928 4134 
L 2272 4134 
L 2272 0 
L 1638 0 
L 1638 4134 
L -19 4134 
L -19 4666 
z
" transform="scale(0.015625)"/>
      <path id="DejaVuSans-50" d="M 1259 4147 
L 1259 2394 
L 2053 2394 
Q 2494 2394 2734 2622 
Q 2975 2850 2975 3272 
Q 2975 3691 2734 3919 
Q 2494 4147 2053 4147 
L 1259 4147 
z
M 628 4666 
L 2053 4666 
Q 2838 4666 3239 4311 
Q 3641 3956 3641 3272 
Q 3641 2581 3239 2228 
Q 2838 1875 2053 1875 
L 1259 1875 
L 1259 0 
L 628 0 
L 628 4666 
z
" transform="scale(0.015625)"/>
      <path id="DejaVuSans-72" d="M 2631 2963 
Q 2534 3019 2420 3045 
Q 2306 3072 2169 3072 
Q 1681 3072 1420 2755 
Q 1159 2438 1159 1844 
L 1159 0 
L 581 0 
L 581 3500 
L 1159 3500 
L 1159 2956 
Q 1341 3275 1631 3429 
Q 1922 3584 2338 3584 
Q 2397 3584 2469 3576 
Q 2541 3569 2628 3553 
L 2631 2963 
z
" transform="scale(0.015625)"/>
      <path id="DejaVuSans-73" d="M 2834 3397 
L 2834 2853 
Q 2591 2978 2328 3040 
Q 2066 3103 1784 3103 
Q 1356 3103 1142 2972 
Q 928 2841 928 2578 
Q 928 2378 1081 2264 
Q 1234 2150 1697 2047 
L 1894 2003 
Q 2506 1872 2764 1633 
Q 3022 1394 3022 966 
Q 3022 478 2636 193 
Q 2250 -91 1575 -91 
Q 1294 -91 989 -36 
Q 684 19 347 128 
L 347 722 
Q 666 556 975 473 
Q 1284 391 1588 391 
Q 1994 391 2212 530 
Q 2431 669 2431 922 
Q 2431 1156 2273 1281 
Q 2116 1406 1581 1522 
L 1381 1569 
Q 847 1681 609 1914 
Q 372 2147 372 2553 
Q 372 3047 722 3315 
Q 1072 3584 1716 3584 
Q 2034 3584 2315 3537 
Q 2597 3491 2834 3397 
z
" transform="scale(0.015625)"/>
      <path id="DejaVuSans-27" d="M 1147 4666 
L 1147 2931 
L 616 2931 
L 616 4666 
L 1147 4666 
z
" transform="scale(0.015625)"/>
      <path id="DejaVuSans-4f" d="M 2522 4238 
Q 1834 4238 1429 3725 
Q 1025 3213 1025 2328 
Q 1025 1447 1429 934 
Q 1834 422 2522 422 
Q 3209 422 3611 934 
Q 4013 1447 4013 2328 
Q 4013 3213 3611 3725 
Q 3209 4238 2522 4238 
z
M 2522 4750 
Q 3503 4750 4090 4092 
Q 4678 3434 4678 2328 
Q 4678 1225 4090 567 
Q 3503 -91 2522 -91 
Q 1538 -91 948 565 
Q 359 1222 359 2328 
Q 359 3434 948 4092 
Q 1538 4750 2522 4750 
z
" transform="scale(0.015625)"/>
      <path id="DejaVuSans-76" d="M 191 3500 
L 800 3500 
L 1894 563 
L 2988 3500 
L 3597 3500 
L 2284 0 
L 1503 0 
L 191 3500 
z
" transform="scale(0.015625)"/>
      <path id="DejaVuSans-6d" d="M 3328 2828 
Q 3544 3216 3844 3400 
Q 4144 3584 4550 3584 
Q 5097 3584 5394 3201 
Q 5691 2819 5691 2113 
L 5691 0 
L 5113 0 
L 5113 2094 
Q 5113 2597 4934 2840 
Q 4756 3084 4391 3084 
Q 3944 3084 3684 2787 
Q 3425 2491 3425 1978 
L 3425 0 
L 2847 0 
L 2847 2094 
Q 2847 2600 2669 2842 
Q 2491 3084 2119 3084 
Q 1678 3084 1418 2786 
Q 1159 2488 1159 1978 
L 1159 0 
L 581 0 
L 581 3500 
L 1159 3500 
L 1159 2956 
Q 1356 3278 1631 3431 
Q 1906 3584 2284 3584 
Q 2666 3584 2933 3390 
Q 3200 3197 3328 2828 
z
" transform="scale(0.015625)"/>
      <path id="DejaVuSans-28" d="M 1984 4856 
Q 1566 4138 1362 3434 
Q 1159 2731 1159 2009 
Q 1159 1288 1364 580 
Q 1569 -128 1984 -844 
L 1484 -844 
Q 1016 -109 783 600 
Q 550 1309 550 2009 
Q 550 2706 781 3412 
Q 1013 4119 1484 4856 
L 1984 4856 
z
" transform="scale(0.015625)"/>
      <path id="DejaVuSans-48" d="M 628 4666 
L 1259 4666 
L 1259 2753 
L 3553 2753 
L 3553 4666 
L 4184 4666 
L 4184 0 
L 3553 0 
L 3553 2222 
L 1259 2222 
L 1259 0 
L 628 0 
L 628 4666 
z
" transform="scale(0.015625)"/>
      <path id="DejaVuSans-68" d="M 3513 2113 
L 3513 0 
L 2938 0 
L 2938 2094 
Q 2938 2591 2744 2837 
Q 2550 3084 2163 3084 
Q 1697 3084 1428 2787 
Q 1159 2491 1159 1978 
L 1159 0 
L 581 0 
L 581 4863 
L 1159 4863 
L 1159 2956 
Q 1366 3272 1645 3428 
Q 1925 3584 2291 3584 
Q 2894 3584 3203 3211 
Q 3513 2838 3513 2113 
z
" transform="scale(0.015625)"/>
      <path id="DejaVuSans-41" d="M 2188 4044 
L 1331 1722 
L 3047 1722 
L 2188 4044 
z
M 1831 4666 
L 2547 4666 
L 4325 0 
L 3669 0 
L 3244 1197 
L 1141 1197 
L 716 0 
L 50 0 
L 1831 4666 
z
" transform="scale(0.015625)"/>
      <path id="DejaVuSans-63" d="M 3122 3366 
L 3122 2828 
Q 2878 2963 2633 3030 
Q 2388 3097 2138 3097 
Q 1578 3097 1268 2742 
Q 959 2388 959 1747 
Q 959 1106 1268 751 
Q 1578 397 2138 397 
Q 2388 397 2633 464 
Q 2878 531 3122 666 
L 3122 134 
Q 2881 22 2623 -34 
Q 2366 -91 2075 -91 
Q 1284 -91 818 406 
Q 353 903 353 1747 
Q 353 2603 823 3093 
Q 1294 3584 2113 3584 
Q 2378 3584 2631 3529 
Q 2884 3475 3122 3366 
z
" transform="scale(0.015625)"/>
      <path id="DejaVuSans-7a" d="M 353 3500 
L 3084 3500 
L 3084 2975 
L 922 459 
L 3084 459 
L 3084 0 
L 275 0 
L 275 525 
L 2438 3041 
L 353 3041 
L 353 3500 
z
" transform="scale(0.015625)"/>
      <path id="DejaVuSans-26" d="M 1556 2509 
Q 1272 2256 1139 2004 
Q 1006 1753 1006 1478 
Q 1006 1022 1337 719 
Q 1669 416 2169 416 
Q 2466 416 2725 514 
Q 2984 613 3213 813 
L 1556 2509 
z
M 1997 2859 
L 3584 1234 
Q 3769 1513 3872 1830 
Q 3975 2147 3994 2503 
L 4575 2503 
Q 4538 2091 4375 1687 
Q 4213 1284 3922 891 
L 4794 0 
L 4006 0 
L 3559 459 
Q 3234 181 2878 45 
Q 2522 -91 2113 -91 
Q 1359 -91 881 339 
Q 403 769 403 1441 
Q 403 1841 612 2192 
Q 822 2544 1241 2853 
Q 1091 3050 1012 3245 
Q 934 3441 934 3628 
Q 934 4134 1281 4442 
Q 1628 4750 2203 4750 
Q 2463 4750 2720 4694 
Q 2978 4638 3244 4525 
L 3244 3956 
Q 2972 4103 2725 4179 
Q 2478 4256 2266 4256 
Q 1938 4256 1733 4082 
Q 1528 3909 1528 3634 
Q 1528 3475 1620 3314 
Q 1713 3153 1997 2859 
z
" transform="scale(0.015625)"/>
      <path id="DejaVuSans-29" d="M 513 4856 
L 1013 4856 
Q 1481 4119 1714 3412 
Q 1947 2706 1947 2009 
Q 1947 1309 1714 600 
Q 1481 -109 1013 -844 
L 513 -844 
Q 928 -128 1133 580 
Q 1338 1288 1338 2009 
Q 1338 2731 1133 3434 
Q 928 4138 513 4856 
z
" transform="scale(0.015625)"/>
     </defs>
     <use xlink:href="#DejaVuSans-54"/>
     <use xlink:href="#DejaVuSans-6f" transform="translate(44.083984 0)"/>
     <use xlink:href="#DejaVuSans-70" transform="translate(105.265625 0)"/>
     <use xlink:href="#DejaVuSans-20" transform="translate(168.742188 0)"/>
     <use xlink:href="#DejaVuSans-50" transform="translate(200.529297 0)"/>
     <use xlink:href="#DejaVuSans-6c" transform="translate(260.832031 0)"/>
     <use xlink:href="#DejaVuSans-61" transform="translate(288.615234 0)"/>
     <use xlink:href="#DejaVuSans-79" transform="translate(349.894531 0)"/>
     <use xlink:href="#DejaVuSans-65" transform="translate(409.074219 0)"/>
     <use xlink:href="#DejaVuSans-72" transform="translate(470.597656 0)"/>
     <use xlink:href="#DejaVuSans-73" transform="translate(511.710938 0)"/>
     <use xlink:href="#DejaVuSans-27" transform="translate(563.810547 0)"/>
     <use xlink:href="#DejaVuSans-20" transform="translate(591.300781 0)"/>
     <use xlink:href="#DejaVuSans-45" transform="translate(623.087891 0)"/>
     <use xlink:href="#DejaVuSans-6c" transform="translate(686.271484 0)"/>
     <use xlink:href="#DejaVuSans-6f" transform="translate(714.054688 0)"/>
     <use xlink:href="#DejaVuSans-20" transform="translate(775.236328 0)"/>
     <use xlink:href="#DejaVuSans-4f" transform="translate(807.023438 0)"/>
     <use xlink:href="#DejaVuSans-76" transform="translate(885.734375 0)"/>
     <use xlink:href="#DejaVuSans-65" transform="translate(944.914062 0)"/>
     <use xlink:href="#DejaVuSans-72" transform="translate(1006.4375 0)"/>
     <use xlink:href="#DejaVuSans-20" transform="translate(1047.550781 0)"/>
     <use xlink:href="#DejaVuSans-54" transform="translate(1079.337891 0)"/>
     <use xlink:href="#DejaVuSans-69" transform="translate(1137.296875 0)"/>
     <use xlink:href="#DejaVuSans-6d" transform="translate(1165.080078 0)"/>
     <use xlink:href="#DejaVuSans-65" transform="translate(1262.492188 0)"/>
     <use xlink:href="#DejaVuSans-20" transform="translate(1324.015625 0)"/>
     <use xlink:href="#DejaVuSans-28" transform="translate(1355.802734 0)"/>
     <use xlink:href="#DejaVuSans-48" transform="translate(1394.816406 0)"/>
     <use xlink:href="#DejaVuSans-69" transform="translate(1470.011719 0)"/>
     <use xlink:href="#DejaVuSans-67" transform="translate(1497.794922 0)"/>
     <use xlink:href="#DejaVuSans-68" transform="translate(1561.271484 0)"/>
     <use xlink:href="#DejaVuSans-6c" transform="translate(1624.650391 0)"/>
     <use xlink:href="#DejaVuSans-69" transform="translate(1652.433594 0)"/>
     <use xlink:href="#DejaVuSans-67" transform="translate(1680.216797 0)"/>
     <use xlink:href="#DejaVuSans-68" transform="translate(1743.693359 0)"/>
     <use xlink:href="#DejaVuSans-74" transform="translate(1807.072266 0)"/>
     <use xlink:href="#DejaVuSans-69" transform="translate(1846.28125 0)"/>
     <use xlink:href="#DejaVuSans-6e" transform="translate(1874.064453 0)"/>
     <use xlink:href="#DejaVuSans-67" transform="translate(1937.443359 0)"/>
     <use xlink:href="#DejaVuSans-20" transform="translate(2000.919922 0)"/>
     <use xlink:href="#DejaVuSans-41" transform="translate(2032.707031 0)"/>
     <use xlink:href="#DejaVuSans-6c" transform="translate(2101.115234 0)"/>
     <use xlink:href="#DejaVuSans-63" transform="translate(2128.898438 0)"/>
     <use xlink:href="#DejaVuSans-61" transform="translate(2183.878906 0)"/>
     <use xlink:href="#DejaVuSans-72" transform="translate(2245.158203 0)"/>
     <use xlink:href="#DejaVuSans-61" transform="translate(2286.271484 0)"/>
     <use xlink:href="#DejaVuSans-7a" transform="translate(2347.550781 0)"/>
     <use xlink:href="#DejaVuSans-20" transform="translate(2400.041016 0)"/>
     <use xlink:href="#DejaVuSans-26" transform="translate(2431.828125 0)"/>
     <use xlink:href="#DejaVuSans-20" transform="translate(2509.806641 0)"/>
     <use xlink:href="#DejaVuSans-53" transform="translate(2541.59375 0)"/>
     <use xlink:href="#DejaVuSans-69" transform="translate(2605.070312 0)"/>
     <use xlink:href="#DejaVuSans-6e" transform="translate(2632.853516 0)"/>
     <use xlink:href="#DejaVuSans-6e" transform="translate(2696.232422 0)"/>
     <use xlink:href="#DejaVuSans-65" transform="translate(2759.611328 0)"/>
     <use xlink:href="#DejaVuSans-72" transform="translate(2821.134766 0)"/>
     <use xlink:href="#DejaVuSans-29" transform="translate(2862.248047 0)"/>
    </g>
   </g>
   <g id="legend_1">
    <g id="patch_7">
     <path d="M 64.26 64.23625 
L 167.499063 64.23625 
Q 169.499063 64.23625 169.499063 62.23625 
L 169.499063 33.88 
Q 169.499063 31.88 167.499063 31.88 
L 64.26 31.88 
Q 62.26 31.88 62.26 33.88 
L 62.26 62.23625 
Q 62.26 64.23625 64.26 64.23625 
z
" style="fill: #ffffff; opacity: 0.8; stroke: #cccccc; stroke-linejoin: miter"/>
    </g>
    <g id="line2d_29">
     <path d="M 66.26 39.978437 
L 76.26 39.978437 
L 86.26 39.978437 
" style="fill: none; stroke: #ff7f0e; stroke-width: 2.5; stroke-linecap: square"/>
    </g>
    <g id="text_22">
     <!-- Carlos Alcaraz -->
     <g transform="translate(94.26 43.478437) scale(0.1 -0.1)">
      <defs>
       <path id="DejaVuSans-43" d="M 4122 4306 
L 4122 3641 
Q 3803 3938 3442 4084 
Q 3081 4231 2675 4231 
Q 1875 4231 1450 3742 
Q 1025 3253 1025 2328 
Q 1025 1406 1450 917 
Q 1875 428 2675 428 
Q 3081 428 3442 575 
Q 3803 722 4122 1019 
L 4122 359 
Q 3791 134 3420 21 
Q 3050 -91 2638 -91 
Q 1578 -91 968 557 
Q 359 1206 359 2328 
Q 359 3453 968 4101 
Q 1578 4750 2638 4750 
Q 3056 4750 3426 4639 
Q 3797 4528 4122 4306 
z
" transform="scale(0.015625)"/>
      </defs>
      <use xlink:href="#DejaVuSans-43"/>
      <use xlink:href="#DejaVuSans-61" transform="translate(69.824219 0)"/>
      <use xlink:href="#DejaVuSans-72" transform="translate(131.103516 0)"/>
      <use xlink:href="#DejaVuSans-6c" transform="translate(172.216797 0)"/>
      <use xlink:href="#DejaVuSans-6f" transform="translate(200 0)"/>
      <use xlink:href="#DejaVuSans-73" transform="translate(261.181641 0)"/>
      <use xlink:href="#DejaVuSans-20" transform="translate(313.28125 0)"/>
      <use xlink:href="#DejaVuSans-41" transform="translate(345.068359 0)"/>
      <use xlink:href="#DejaVuSans-6c" transform="translate(413.476562 0)"/>
      <use xlink:href="#DejaVuSans-63" transform="translate(441.259766 0)"/>
      <use xlink:href="#DejaVuSans-61" transform="translate(496.240234 0)"/>
      <use xlink:href="#DejaVuSans-72" transform="translate(557.519531 0)"/>
      <use xlink:href="#DejaVuSans-61" transform="translate(598.632812 0)"/>
      <use xlink:href="#DejaVuSans-7a" transform="translate(659.912109 0)"/>
     </g>
    </g>
    <g id="line2d_30">
     <path d="M 66.26 54.656562 
L 76.26 54.656562 
L 86.26 54.656562 
" style="fill: none; stroke: #1f77b4; stroke-width: 2.5; stroke-linecap: square"/>
    </g>
    <g id="text_23">
     <!-- Jannik Sinner -->
     <g transform="translate(94.26 58.156562) scale(0.1 -0.1)">
      <defs>
       <path id="DejaVuSans-6b" d="M 581 4863 
L 1159 4863 
L 1159 1991 
L 2875 3500 
L 3609 3500 
L 1753 1863 
L 3688 0 
L 2938 0 
L 1159 1709 
L 1159 0 
L 581 0 
L 581 4863 
z
" transform="scale(0.015625)"/>
      </defs>
      <use xlink:href="#DejaVuSans-4a"/>
      <use xlink:href="#DejaVuSans-61" transform="translate(29.492188 0)"/>
      <use xlink:href="#DejaVuSans-6e" transform="translate(90.771484 0)"/>
      <use xlink:href="#DejaVuSans-6e" transform="translate(154.150391 0)"/>
      <use xlink:href="#DejaVuSans-69" transform="translate(217.529297 0)"/>
      <use xlink:href="#DejaVuSans-6b" transform="translate(245.3125 0)"/>
      <use xlink:href="#DejaVuSans-20" transform="translate(303.222656 0)"/>
      <use xlink:href="#DejaVuSans-53" transform="translate(335.009766 0)"/>
      <use xlink:href="#DejaVuSans-69" transform="translate(398.486328 0)"/>
      <use xlink:href="#DejaVuSans-6e" transform="translate(426.269531 0)"/>
      <use xlink:href="#DejaVuSans-6e" transform="translate(489.648438 0)"/>
      <use xlink:href="#DejaVuSans-65" transform="translate(553.027344 0)"/>
      <use xlink:href="#DejaVuSans-72" transform="translate(614.550781 0)"/>
     </g>
    </g>
   </g>
  </g>
 </g>
 <defs>
  <clipPath id="p9baa13e9ba">
   <rect x="57.26" y="26.88" width="782.601405" height="435.16"/>
  </clipPath>
 </defs>
</svg>
